<svg width="96" height="96" viewBox="0 0 96 96" fill="none" xmlns="http://www.w3.org/2000/svg">
  <circle cx="48" cy="48" r="48" fill="url(#paint0_linear)"/>
  <path d="M48 26C37.5066 26 29 34.0589 29 44C29 53.9411 37.5066 62 48 62C58.4934 62 67 53.9411 67 44C67 34.0589 58.4934 26 48 26Z" fill="white" fill-opacity="0.92"/>
  <path d="M48 69C44.6863 69 42 71.6863 42 75C42 78.3137 44.6863 81 48 81C51.3137 81 54 78.3137 54 75C54 71.6863 51.3137 69 48 69Z" fill="white" fill-opacity="0.92"/>
  <path d="M48.2 36C42.9 36 39.2 39.2 39.2 43.8H45.2C45.2 42.2 46.4 41.2 48.1 41.2C49.9 41.2 51.2 42.3 51.2 43.9C51.2 45.4 50.4 46.2 48.7 47.3C45.8 49.2 44.8 50.8 44.8 54V56H50.4V54.5C50.4 52.9 51.1 52.1 53 50.8C55.9 48.9 57.2 47.1 57.2 43.9C57.2 39.1 53.4 36 48.2 36Z" fill="#8A5CFF"/>
  <defs>
    <linearGradient id="paint0_linear" x1="16" y1="14" x2="82" y2="80" gradientUnits="userSpaceOnUse">
      <stop stop-color="#AE7DFF"/>
      <stop offset="1" stop-color="#7A4DFF"/>
    </linearGradient>
  </defs>
</svg>
